<svg xmlns="http://www.w3.org/2000/svg" width="1029.505" height="573.311" viewBox="0 0 1029.505 573.311">
    <g transform="translate(0)">
        <path
            d="M1057.5,508.154A162.488,162.488,0,0,1,1034,592.638c0,31.155-14.525,59.394-38.084,79.976a130.257,130.257,0,0,1-18.97,13.751c-.27.171-.549.333-.828.495-.5.3-1.008.594-1.521.9l-.477.279h0c-2.151,1.215-4.347,2.385-6.587,3.483a149.089,149.089,0,0,1-66.378,15.3H223.435q-8.1,0-16.055-.648a190.018,190.018,0,0,1-54.949-12.725q-5.148-2.034-10.1-4.374-2.358-1.107-4.671-2.277c-.963-.486-1.926-.99-2.88-1.494A171.439,171.439,0,0,1,117.992,675.1a165.5,165.5,0,0,1-14.219-10.907c-30.624-26.278-49.567-62.643-49.567-102.77A162.435,162.435,0,0,1,28,472.616C28,383.4,99.309,311.072,187.285,311.072c2.7,0,5.4.081,8.1.225a8.23,8.23,0,0,1,1.152.054c14.831-25.279,34.656-48.505,58.495-68.952,65.01-55.7,160.023-90.82,265.862-90.82,88.93,0,170.219,24.793,232.484,65.757a156.748,156.748,0,0,1,77.348-20.293c87.958,0,159.285,72.326,159.285,161.544a166.448,166.448,0,0,1-.9,16.9A161.985,161.985,0,0,1,1057.5,508.154Z"
            transform="translate(-28 -133.51)" fill="#6c63ff" opacity="0.1" />
        <path
            d="M473.738,169h82.279A153.24,153.24,0,0,1,709.264,322.247v207.62H320.5V322.238A153.238,153.238,0,0,1,473.738,169Z"
            transform="translate(-32.077 -16.914)" fill="#2f2e41" />
        <path
            d="M483.738,178.28h64.281A153.24,153.24,0,0,1,701.266,331.527V522.435H330.5V331.518A153.238,153.238,0,0,1,483.738,178.28Z"
            transform="translate(-33.078 -17.843)" opacity="0.2" />
        <path
            d="M977.521,726.375v15.713a149.088,149.088,0,0,1-66.378,15.3h-677.7q-8.1,0-16.055-.648a190.012,190.012,0,0,1-54.949-12.725q-5.148-2.034-10.1-4.374-2.358-1.107-4.671-2.277c-.963-.486-1.926-.99-2.88-1.494A171.436,171.436,0,0,1,128,725.682V683.008A26.008,26.008,0,0,1,154.008,657H902.045a26.008,26.008,0,0,1,17.1,6.452l49.5,43.376A25.98,25.98,0,0,1,977.521,726.375Z"
            transform="translate(-38.008 -184.094)" fill="#2f2e41" />
        <path
            d="M487.648,356.436q-29.436,1.944-58.648,6.3c-5.534.828-11.15,1.746-16.2,4.194a47.517,47.517,0,0,0-10.745,7.7,141.629,141.629,0,0,0-34.2,46.373c-5.013,10.934-8.612,22.5-13.337,33.522C337.7,493.9,307.2,526.1,289.441,565.055c-3.843,8.432-7.082,17.233-8.369,26.4-1.332,9.485.18,20.554,7.973,26.1,3.6,2.547,7.973,3.6,12.257,4.5a1477.226,1477.226,0,0,0,163.4,26.683c-5.948-5.742-7.937-14.642-7.154-22.867s4.014-16,7.2-23.623q-46.625-10.286-93.015-21.6c-4.617-1.125-10.16-3.24-10.727-7.955-.288-2.4.9-4.716,2.07-6.83a366.418,366.418,0,0,1,47.156-66.594c0,25.252-1.251,53.77-1.251,79.031H700.64a223.174,223.174,0,0,1-6.155-43.961c-1.359-48.38,14.93-96.39,10.7-144.671-.4-4.455-1.008-9.044-3.339-12.86-4.023-6.587-12.05-9.314-19.429-11.564-28.293-8.6-57.181-17.305-86.752-16.63-8.792.207-17.548,1.233-26.287,2.268C542.75,354.024,514.4,354.663,487.648,356.436Z"
            transform="translate(-53.285 -153.226)" fill="#6c63ff" />
        <path
            d="M358.869,678.737l21.238,67.971a2.124,2.124,0,0,0,2.025,1.485h91.135L451.669,669l-90.946,6.992a2.124,2.124,0,0,0-1.854,2.745Z"
            transform="translate(-61.105 -185.295)" fill="#656478" />
        <path
            d="M524.814,385.9c-3.96,2.277-8.576,3.1-13.076,3.879l-29.04,5.04c-5.651.981-11.6,2.1-15.956,5.831-8.909,7.622-6.983,21.652-4.284,33.063l5.4,22.894c4.068,17.206,8.225,34.62,16.567,50.206,14.57,27.2,41.3,46.8,70.688,56.236,10.5,3.375,21.6,5.57,32.559,4.365,21.472-2.358,39.839-17.665,51.16-36.069s16.711-39.749,21.652-60.789c4.743-20.14,9.251-40.568,8.945-61.266-.09-6.443-.738-13.175-4.176-18.637-7.532-12-24.6-12.9-38.6-10.682-2.178.351-4.437.729-6.533.072-6.3-1.962-6.443-10.61-9.143-16.612-5.1-11.321-20.239-13.328-32.613-12.3s-31.641,2.349-42.422,9.359C525.579,367.187,536.972,378.886,524.814,385.9Z"
            transform="translate(-71.256 -153.457)" fill="#fbbebe" />
        <path
            d="M524.814,385.9c-3.96,2.277-8.576,3.1-13.076,3.879l-29.04,5.04c-5.651.981-11.6,2.1-15.956,5.831-8.909,7.622-6.983,21.652-4.284,33.063l5.4,22.894c4.068,17.206,8.225,34.62,16.567,50.206,14.57,27.2,41.3,46.8,70.688,56.236,10.5,3.375,21.6,5.57,32.559,4.365,21.472-2.358,39.839-17.665,51.16-36.069s16.711-39.749,21.652-60.789c4.743-20.14,9.251-40.568,8.945-61.266-.09-6.443-.738-13.175-4.176-18.637-7.532-12-24.6-12.9-38.6-10.682-2.178.351-4.437.729-6.533.072-6.3-1.962-6.443-10.61-9.143-16.612-5.1-11.321-20.239-13.328-32.613-12.3s-31.641,2.349-42.422,9.359C525.579,367.187,536.972,378.886,524.814,385.9Z"
            transform="translate(-71.256 -153.457)" opacity="0.1" />
        <path
            d="M499.054,415.459c4.392,9.215,7.685,18.988,12.995,27.708,4.221,6.929,9.629,13.04,15.011,19.114,13.94,15.767,28.059,31.659,45.311,43.664A200.618,200.618,0,0,1,622.2,407.855c7.433-7.982,16.738-15.848,27.645-15.551,6.767.189,13.013,3.546,18.646,7.28,6.3,4.167,12.257,9,16.784,15,7.154,9.557,10.241,21.661,10.8,33.585s-1.3,23.821-3.132,35.61l-9.449,60.933c-.549,3.528-1.314,7.424-4.194,9.539a13.2,13.2,0,0,1-5.4,1.944c-34.35,6.686-69.753,2.349-104.75,2.007-38.7-.369-78.464,4.041-115.117-8.27-1.917-.648-3.906-1.395-5.2-2.934a10.853,10.853,0,0,1-1.8-3.879c-8.54-27.645-1.692-57.352,3.375-85.834a673.468,673.468,0,0,0,8.558-68.2c.153-2.061,22.795,2.493,25.324,3.951C491.171,397.119,495.742,408.512,499.054,415.459Z"
            transform="translate(-69.533 -157.228)" fill="#6c63ff" />
        <g transform="translate(97.163 240.95)" opacity="0.2">
            <path
                d="M192.9,666.853a10.713,10.713,0,0,1-.09,1.215q-5.148-2.034-10.1-4.374a8.189,8.189,0,0,1-4.671-2.277c-.963-.486-1.926-.99-2.88-1.494a12.319,12.319,0,0,1,.729-1.314c1.854-2.934,4.671-4.77,7.775-4.671s5.8,2.106,7.46,5.139a15.182,15.182,0,0,1,1.773,7.775Z"
                transform="translate(-139.891 -424.737)" fill="#3f3d56" />
            <path
                d="M193.267,649.733a15.191,15.191,0,0,1-2.259,7.631c-1.854,2.925-4.671,4.76-7.775,4.661l-.639-.045a8.189,8.189,0,0,1-4.671-2.277,11.277,11.277,0,0,1-2.151-2.808,15.794,15.794,0,0,1,.486-15.406c1.854-2.934,4.671-4.77,7.775-4.671s5.8,2.106,7.46,5.139A15.182,15.182,0,0,1,193.267,649.733Z"
                transform="translate(-139.775 -423.023)" fill="#3f3d56" />
            <ellipse cx="12.608" cy="9.629" rx="12.608" ry="9.629" transform="translate(34.331 223.323) rotate(-88.19)"
                fill="#3f3d56" />
            <ellipse cx="12.608" cy="9.629" rx="12.608" ry="9.629" transform="translate(34.822 207.916) rotate(-88.19)"
                fill="#3f3d56" />
            <ellipse cx="12.608" cy="9.629" rx="12.608" ry="9.629" transform="translate(35.304 192.509) rotate(-88.19)"
                fill="#3f3d56" />
            <path
                d="M148.6,472.863a44.692,44.692,0,0,1-3.42-5.4l25.432-3.357-27.411-.648a46.238,46.238,0,0,1,.279-36.573l36.1,20.194-33.072-25.954a46.148,46.148,0,1,1,74.549,53.995,46.005,46.005,0,0,1,4.995,8.576l-33.36,16.054,35.394-10.646a46.2,46.2,0,0,1-8.819,43.106A46.148,46.148,0,1,1,146.8,529.9a46.148,46.148,0,0,1,1.8-57.037Z"
                transform="translate(-135.969 -399.247)" fill="#6c63ff" />
            <path
                d="M230.038,515.537a45.95,45.95,0,0,1-10.8,28.212,46.148,46.148,0,1,1-72.443-2.286C140.829,533.418,230.2,510.362,230.038,515.537Z"
                transform="translate(-135.968 -410.811)" opacity="0.1" />
        </g>
        <circle cx="19.465" cy="19.465" r="19.465" transform="translate(41.747 107.585)" fill="#6c63ff" opacity="0.1" />
        <circle cx="19.465" cy="19.465" r="19.465" transform="translate(122.875 0)" fill="#6c63ff" opacity="0.1" />
        <circle cx="32.622" cy="32.622" r="32.622" transform="translate(103.121 60.753)" fill="#6c63ff" opacity="0.1" />
        <circle cx="75.593" cy="75.593" r="75.593" transform="translate(413.062 91.342)" fill="#fbbebe" />
        <path
            d="M525.805,151.6c-20.167,2.556-41.936,5.93-56.191,20.419-7.973,8.1-12.644,18.9-16.487,29.589-5.957,16.648-10.394,34.2-9,51.862,1.242,15.8,7.091,31.965,2.358,47.1-2.178,6.965-6.452,13.049-9.773,19.537-6.155,12.05-9.053,25.558-10.115,39.047-.738,9.278-.594,18.826,2.457,27.618,3.249,9.359,9.584,17.323,13.6,26.377,5.939,13.373,6.533,28.419,6.992,43.043s.846,29.148,1.188,43.718c.216,9.161.234,18.97-4.833,26.611,18.709-7.5,37.68-15.146,53.689-27.384s28.968-29.886,31.038-49.936c1.674-16.253-3.816-32.271-8.549-47.912-11.7-38.7-19.258-79.949-10.745-119.464,3.069-14.228,10.529-30.111,24.847-32.73,8.738-1.593,17.458,2.394,25.333,6.515,18.61,9.737,37.8,22.336,44.726,42.161,6.3,17.926,1,37.9-7.2,55.012s-19.357,32.856-25.729,50.746c-9.782,27.447-7.028,59.583,9.224,83.764s46.283,39.056,75.161,35.151c-2.259-9.755-9.341-17.638-13.139-26.908-6.9-16.837-2.25-36.2,5.175-52.816s17.557-32.1,22.2-49.738c3.276-12.419,3.672-25.4,3.654-38.237,0-20.212-1-40.433-2.943-60.555s-4.914-40.5-11.321-59.853c-5.148-15.524-12.644-30.534-23.857-42.44-11.933-12.68-27.465-21.274-42.719-29.7-9.125-5.022-18.448-10.106-28.689-11.987-8.1-1.485-16.612-3.6-24.874-3.735C535.669,146.4,529.765,147.613,525.805,151.6Z"
            transform="translate(-67.856 -132.999)" fill="#434175" />
        <path
            d="M677.6,330.145c-2.376-4.2-4.914-8.549-8.918-11.24a31.5,31.5,0,0,0-7.361-3.3c-8.72-3.051-17.584-6.128-26.808-6.614-1.5-.072-3.222,0-4.2,1.152-2.016,2.367,1.179,5.588,3.942,7.019l21.976,11.384L635.969,326.4c-2.943-.315-7.136.486-6.92,3.438.144,1.935,2.268,2.988,4.1,3.6,13,4.5,28.032,8.027,35.151,19.8-9.485-.9-19.177-1.8-28.473.288-2.547.576-5.184,1.467-6.848,3.474s-1.854,5.4.243,6.992a7.063,7.063,0,0,0,4.662.9c6.6-.315,13.364-1.629,19.7.252s11.96,8.522,9.773,14.75c5.615.5,12.257,0,17.449-2.421,5.723-2.7,5.589-7.775,5.238-13.895C689.3,351.59,683.35,340.4,677.6,330.145Z"
            transform="translate(-88.154 -149.262)" fill="#fbbebe" />
        <path
            d="M673.44,532.3a1012.6,1012.6,0,0,0-20.7-105.218c-4.5-18-9.611-36.3-8.324-54.823,18.592,2.367,35.25,4.122,52.384-3.474.279,9.728,7.334,18,9.9,27.4,1.719,6.3,1.071,12.968,1.746,19.456s2.7,12.779,4.437,19.087a234.186,234.186,0,0,1,5.966,96.057C702.948,532.683,689.305,534.762,673.44,532.3Z"
            transform="translate(-89.673 -155.249)" opacity="0.1" />
        <path
            d="M670.44,532.3a1012.588,1012.588,0,0,0-20.7-105.218c-4.5-18-9.611-36.3-8.324-54.823,18.592,2.367,35.25,4.122,52.384-3.474.279,9.728,7.334,18,9.9,27.4,1.719,6.3,1.071,12.968,1.746,19.456s2.7,12.779,4.437,19.087a234.186,234.186,0,0,1,5.966,96.057C699.948,532.683,686.305,534.762,670.44,532.3Z"
            transform="translate(-89.373 -155.249)" fill="#6c63ff" />
        <path
            d="M384.629,719.535l8.81-218.563a13.373,13.373,0,0,1,13.5-12.833l347.836,3.33a13.373,13.373,0,0,1,13.184,14.543L749.581,715.4a13.373,13.373,0,0,1-13.094,12.2l-338.261,5.849a13.382,13.382,0,0,1-13.6-13.913Z"
            transform="translate(-63.692 -167.194)" fill="#3f3d56" />
        <ellipse cx="15.299" cy="17.998" rx="15.299" ry="17.998" transform="translate(499.904 402.263)"
            fill="#6c63ff" />
        <path d="M954.833,584.76l-.72,6.173-11.7,99.765c-30.5,21.265-54.22.828-54.427,0L873.247,590.465l-.837-5.705Z"
            transform="translate(-112.512 -176.864)" fill="#3f3d56" />
        <path d="M954.833,584.76l-.72,6.173c-34.359,19.978-71.012,4.428-80.867-.468l-.837-5.705Z"
            transform="translate(-112.512 -176.864)" opacity="0.1" />
        <path d="M870.5,578.74v9s45.446,26.422,86.392,0v-9Z" transform="translate(-112.32 -176.261)" fill="#6c63ff" />
        <path d="M875.783,565.53s-1.323,6.074-5.283,6.605v7.658h86.392v-6.866a6.385,6.385,0,0,1-4.5-7.4Z"
            transform="translate(-112.32 -174.939)" fill="#6c63ff" />
        <ellipse cx="38.966" cy="11.231" rx="38.966" ry="11.231" transform="translate(762.148 380.017)"
            fill="#6c63ff" />
        <ellipse cx="38.966" cy="11.231" rx="38.966" ry="11.231" transform="translate(762.148 380.017)" opacity="0.1" />
        <path
            d="M948.875,564.618c0,4.5-14.777,8.189-33.018,8.189h-.972c-12.248-.09-22.831-1.8-28.23-4.356-2.439-1.152-3.825-2.457-3.825-3.834,0-2.286,3.78-4.356,9.9-5.84a102.128,102.128,0,0,1,23.155-2.349C934.1,556.429,948.875,560.092,948.875,564.618Z"
            transform="translate(-113.554 -174.027)" opacity="0.1" />
        <path d="M915.31,573.066c-12.248-.09-22.831-1.8-28.23-4.356h0l6.047-9.71Z"
            transform="translate(-113.98 -174.286)" opacity="0.1" />
        <path
            d="M879.969,566.227c-.468-.1-1.089.063-1.179.531a1.143,1.143,0,0,0,.18.675,9.6,9.6,0,0,0,4.3,3.681,2.564,2.564,0,0,0,.981.315.9.9,0,0,0,.9-.468,1.017,1.017,0,0,0-.063-.837,3.716,3.716,0,0,0-1.116-1.224C882.768,567.955,881.535,566.488,879.969,566.227Z"
            transform="translate(-113.15 -175.006)" opacity="0.1" />
        <circle cx="23.245" cy="23.245" r="23.245" transform="translate(779.184 440.923)" fill="#6c63ff" />
        <path d="M185.828,515.85h10.9a22.5,22.5,0,0,1,22.5,22.5V571.78H163.33V538.348A22.5,22.5,0,0,1,185.828,515.85Z"
            transform="translate(-16.347 -51.628)" fill="#3f3d56" />
        <path d="M185.828,515.85h10.9a22.5,22.5,0,0,1,22.5,22.5V571.78H163.33V538.348A22.5,22.5,0,0,1,185.828,515.85Z"
            transform="translate(-16.347 -51.628)" opacity="0.1" />
        <circle cx="4.473" cy="4.473" r="4.473" transform="translate(168.221 467.579)" fill="#3f3d56" />
        <circle cx="4.473" cy="4.473" r="4.473" transform="translate(168.221 461.99)" fill="#3f3d56" />
        <circle cx="4.473" cy="4.473" r="4.473" transform="translate(168.221 456.393)" fill="#3f3d56" />
        <circle cx="4.473" cy="4.473" r="4.473" transform="translate(168.221 450.804)" fill="#3f3d56" />
        <circle cx="4.473" cy="4.473" r="4.473" transform="translate(168.221 445.216)" fill="#3f3d56" />
        <circle cx="4.473" cy="4.473" r="4.473" transform="translate(168.221 439.627)" fill="#3f3d56" />
        <circle cx="4.473" cy="4.473" r="4.473" transform="translate(168.221 434.039)" fill="#3f3d56" />
        <circle cx="4.473" cy="4.473" r="4.473" transform="translate(174.935 436.271)" fill="#3f3d56" />
        <circle cx="4.473" cy="4.473" r="4.473" transform="translate(179.407 434.039)" fill="#3f3d56" />
        <circle cx="4.473" cy="4.473" r="4.473" transform="translate(183.88 431.798)" fill="#3f3d56" />
        <circle cx="4.473" cy="4.473" r="4.473" transform="translate(168.221 428.45)" fill="#3f3d56" />
        <circle cx="4.473" cy="4.473" r="4.473" transform="translate(168.221 422.862)" fill="#3f3d56" />
        <circle cx="4.473" cy="4.473" r="4.473" transform="translate(168.221 417.264)" fill="#3f3d56" />
        <circle cx="4.473" cy="4.473" r="4.473" transform="translate(168.221 411.676)" fill="#3f3d56" />
        <path
            d="M236.325,576.154c-1.107.162-2.223.279-3.339.351a25.7,25.7,0,0,0,2.889-2.97,19.1,19.1,0,0,0-2.7-5.247,9.2,9.2,0,0,1-3.6,1.134c-1.107.162-2.223.279-3.339.36a55.759,55.759,0,0,0,4.275-4.5,18.979,18.979,0,1,0,5.948,10.8Z"
            transform="translate(-45.093 -174.422)" fill="#6c63ff" />
        <path
            d="M255.129,602.356a8.711,8.711,0,0,1-3.762,1.251c-1.107.162-2.223.288-3.339.36a32.76,32.76,0,0,0,3.312-3.438,11.2,11.2,0,1,0,3.789,1.8Z"
            transform="translate(-48.949 -178.406)" fill="#6c63ff" />
        <circle cx="4.473" cy="4.473" r="4.473" transform="translate(161.517 436.271)" fill="#3f3d56" />
        <circle cx="4.473" cy="4.473" r="4.473" transform="translate(157.044 434.039)" fill="#3f3d56" />
        <circle cx="4.473" cy="4.473" r="4.473" transform="translate(152.572 431.798)" fill="#3f3d56" />
        <path
            d="M182.19,602.356a8.675,8.675,0,0,0,3.762,1.251c1.107.162,2.223.288,3.339.36a31.878,31.878,0,0,1-3.312-3.438,11.195,11.195,0,1,1-3.789,1.8Z"
            transform="translate(-42.973 -178.406)" fill="#6c63ff" />
        <path
            d="M185.828,519.58h10.9a22.5,22.5,0,0,1,22.5,22.5v29.58a3.816,3.816,0,0,1-3.816,3.816H167.146a3.816,3.816,0,0,1-3.816-3.816v-29.58a22.5,22.5,0,0,1,22.5-22.5Z"
            transform="translate(-16.347 -52.001)" fill="#3f3d56" />
        <g transform="translate(153.957 386.212)" opacity="0.1">
            <path
                d="M240.72,579.27a16.951,16.951,0,0,1-1.44,1.368,14.6,14.6,0,0,0,1.53-.135A8.036,8.036,0,0,0,240.72,579.27Z"
                transform="translate(-203.103 -562.527)" />
            <path
                d="M231.82,572.916c1.125-.072,2.232-.189,3.348-.351a10.8,10.8,0,0,0,2.907-.792,19.15,19.15,0,0,0-1.566-2.583,6.768,6.768,0,0,1-1.8.765,25.907,25.907,0,0,1-2.889,2.961Z"
                transform="translate(-202.357 -561.518)" />
            <path
                d="M201.051,581.665A18.97,18.97,0,0,1,230.3,565.682l.288-.306a18.988,18.988,0,1,0-25.036,28.555,18.9,18.9,0,0,1-4.5-12.266Z"
                transform="translate(-199.08 -560.665)" />
        </g>
        <g transform="translate(188.352 421.746)" opacity="0.1">
            <path
                d="M249.22,606.44c1.116-.072,2.232-.189,3.339-.351a8.731,8.731,0,0,0,3.762-1.26,11.186,11.186,0,0,1,4.5,7.919,10.245,10.245,0,0,0,.063-1.179,11.141,11.141,0,0,0-4.5-9,8.711,8.711,0,0,1-3.762,1.251l-.9.117a22.827,22.827,0,0,1-2.5,2.5Z"
                transform="translate(-238.493 -600.392)" />
            <path
                d="M248.477,602.382a9.173,9.173,0,0,1,1.116.081c.585-.621,1.161-1.287,1.746-1.935a11.159,11.159,0,0,0-14.039,10.8,7.663,7.663,0,0,0,.054,1.116A11.177,11.177,0,0,1,248.477,602.382Z"
                transform="translate(-237.3 -600.15)" />
        </g>
        <g transform="translate(134.654 421.746)" opacity="0.1">
            <path
                d="M189.293,606.44c-1.116-.072-2.232-.189-3.339-.351a8.685,8.685,0,0,1-3.762-1.26,11.186,11.186,0,0,0-4.5,7.919,10.245,10.245,0,0,1-.063-1.179,11.141,11.141,0,0,1,4.5-9,8.675,8.675,0,0,0,3.762,1.251l.9.117a21.3,21.3,0,0,0,2.5,2.5Z"
                transform="translate(-177.63 -600.392)" />
            <path
                d="M189.772,602.382a9.321,9.321,0,0,0-1.125.081c-.576-.621-1.152-1.287-1.737-1.935a11.159,11.159,0,0,1,14.039,10.8,7.663,7.663,0,0,1-.054,1.116A11.177,11.177,0,0,0,189.772,602.382Z"
                transform="translate(-178.559 -600.15)" />
        </g>
    </g>
</svg>