<svg xmlns="http://www.w3.org/2000/svg" width="1045.608" height="399.469" viewBox="0 0 1045.608 399.469">
    <g transform="translate(-88.395 -372.852)">
        <path
            d="M529.531,637.8a10.141,10.141,0,0,0-2.562-4.025,9.686,9.686,0,0,0-1.387-1.07c-3.934-2.623-9.812-3.21-13.55,0a8.752,8.752,0,0,0-1.04,1.07q-1.673,2.057-3.437,4.024c-1.929,2.2-3.9,4.326-5.969,6.391-.588.573-1.176,1.161-1.779,1.733-.347.347-.693.678-1.04,1.01-1.326,1.266-2.683,2.487-4.055,3.693-.724.648-1.447,1.281-2.186,1.9-1.1.919-2.2,1.839-3.316,2.728-.106.075-.211.151-.317.241-.03.015-.045.045-.075.06-.015,0-.03,0-.045.03a.269.269,0,0,0-.106.075c-.331.226-.558.377-.723.513.06-.03.121-.075.181-.105-.271.211-.558.422-.829.633-2.638,1.944-5.336,3.813-8.094,5.562a149.522,149.522,0,0,1-21.434,11.38c-.5.2-1.01.407-1.522.6a129.581,129.581,0,0,1-61.573,9.074q-3.211-.249-6.421-.678c-2.472-.362-4.929-.8-7.371-1.3a147.628,147.628,0,0,1-27.161-8.2,178.835,178.835,0,0,1-31.14-18.268c-1.507-1.07-3.03-2.141-4.552-3.181q2.6-6.376,5.095-12.782c.829-2.065,1.628-4.13,2.412-6.21,6.165-16.022,11.953-32.2,17.5-48.429q8.411-24.667,15.872-49.62.769-2.532,1.492-5.064,3.911-13.181,7.506-26.423c.226-.859.467-1.7.678-2.562q1.04-3.8,2.035-7.6c1.507-5.713-1.9-12.541-7.9-13.912a11.507,11.507,0,0,0-13.9,7.9c-.648,2.442-1.3,4.869-1.959,7.31q-4.771,17.7-10.039,35.285l-1.537,5.065q-11.621,38.3-25.518,75.831-1.673,4.544-3.391,9.059c-.558,1.477-1.115,2.954-1.688,4.431-1.1,2.909-2.231,5.818-3.361,8.727-.648,1.7-1.311,3.406-1.975,5.095-.437,1.07-.859,2.14-1.281,3.2a63.021,63.021,0,0,0-13.279-3.2l-.723-.09a41.3,41.3,0,0,0-10.566.09,36.046,36.046,0,0,0-25.986,16.068c-7.19,11.32-7.1,27.508,2.984,37.124,10.385,9.9,26.106,9.828,38.33,3.633a42.734,42.734,0,0,0,15.857-14.862,76.237,76.237,0,0,0,4.13-7.009c.317.211.633.422.95.648,1.206.844,2.412,1.7,3.6,2.547a168.412,168.412,0,0,0,21.871,13.43,163.327,163.327,0,0,0,52.182,15.781c.407.045.8.105,1.206.151,2,.256,4.025.452,6.044.618a156.429,156.429,0,0,0,83.775-17.123q3.278-1.7,6.5-3.557,5-2.894,9.767-6.15c1.733-1.176,3.421-2.366,5.095-3.618a152.281,152.281,0,0,0,20.363-18.012q3.549-3.731,6.8-7.7a12.151,12.151,0,0,0,3.316-7.989A11.4,11.4,0,0,0,529.531,637.8ZM279.94,673.7c.317-.226.633-.467.935-.708C280.784,673.221,280.347,673.478,279.94,673.7Zm4.838-4.869c-.347.392-.663.784-1.01,1.176a35.247,35.247,0,0,1-3.391,3.316c-.166.151-.347.3-.528.437a.015.015,0,0,0-.015.015,5.771,5.771,0,0,0-.633.332q-.972.588-1.99,1.085a25.629,25.629,0,0,1-4.085,1.13,25.315,25.315,0,0,1-3.211.03h-.03a22.308,22.308,0,0,1-2.186-.6c-.362-.181-.708-.392-1.055-.6-.136-.121-.256-.241-.332-.317a3.686,3.686,0,0,1-.407-.437.014.014,0,0,0,0-.011.015.015,0,0,0-.011,0c-.166-.3-.347-.6-.512-.9a.046.046,0,0,1-.015-.03c-.121-.377-.226-.769-.316-1.161a18.853,18.853,0,0,1,.015-2.065,20.278,20.278,0,0,1,.814-2.834,16.69,16.69,0,0,1,1.04-1.9c.03-.06.181-.3.347-.573.015-.015.015-.015.015-.03.226-.256.452-.527.693-.769.407-.452.844-.844,1.281-1.251a27.157,27.157,0,0,1,2.638-1.522,29.345,29.345,0,0,1,4.416-1.191,37.674,37.674,0,0,1,6.647.06,45.684,45.684,0,0,1,6.18,1.522,55.686,55.686,0,0,1-4.175,6.843C284.9,668.669,284.839,668.76,284.778,668.835Zm-16.761-4.959a3.279,3.279,0,0,1-.467.588,2.125,2.125,0,0,1,.467-.588Z"
            transform="translate(-154.086 -93.358)" fill="#fff" />
        <path
            d="M413.973,485.941q-.2,7.1-.407,14.2-.43,15.759-.889,31.532-.475,17.748-.995,35.482-.249,9.157-.512,18.314-.7,24.667-1.387,49.318c-.045,1.7-.106,3.391-.151,5.095q-.339,12.232-.678,24.463-.384,13.272-.754,26.543-.271,9.948-.558,19.911-2.035,72.191-4.07,144.383a11.528,11.528,0,0,1-11.3,11.3,11.4,11.4,0,0,1-11.3-11.3q1.131-40.606,2.291-81.212,1.017-36.717,2.065-73.435.339-12.1.678-24.207.52-18.223,1.025-36.446c.045-1.7.106-3.391.151-5.095.03-1.492.075-2.969.121-4.462q.995-35.383,1.99-70.782.407-13.927.784-27.87.452-15.894.9-31.774c.136-4.658.256-9.3.392-13.958a11.528,11.528,0,0,1,11.3-11.3A11.4,11.4,0,0,1,413.973,485.941Z"
            transform="translate(-83.836 -95.438)" fill="#fff" />
        <path
            d="M850.081,487A1346.359,1346.359,0,0,1,807.634,619.55c-4.532,11.978-9.169,23.931-14.126,35.74l1.14-2.7a82.275,82.275,0,0,1-8.425,16q-.346.484-.7.959,1.757-2.247.667-.888c-.383.453-.761.908-1.157,1.35a35.642,35.642,0,0,1-3.39,3.321q-.454.388-.922.76l1.414-1.1c-.164.387-1.315.9-1.674,1.12a27.531,27.531,0,0,1-3.625,1.837l2.7-1.14a28.768,28.768,0,0,1-6.378,1.75l3.005-.4a25.655,25.655,0,0,1-6.478.069l3.005.4a21.111,21.111,0,0,1-5.132-1.382l2.7,1.14a18.106,18.106,0,0,1-2.53-1.351c-.409-.267-1.666-1.219-.023.037,1.708,1.305.22.112-.132-.235-.293-.289-.557-.6-.844-.9-1.33-1.363,1.5,2.346.6.752A27.419,27.419,0,0,1,766,672.221l1.14,2.7a17.979,17.979,0,0,1-1.1-4l.4,3.005a20.569,20.569,0,0,1,0-5.132l-.4,3.005a24.067,24.067,0,0,1,1.5-5.547l-1.14,2.7a25.215,25.215,0,0,1,1.775-3.464,10.14,10.14,0,0,1,1.1-1.615c.074.024-1.912,2.28-.858,1.141.276-.3.534-.612.812-.907.446-.473.925-.906,1.4-1.353,1.574-1.5-2.2,1.456-.387.27a28.724,28.724,0,0,1,4.144-2.26l-2.7,1.14a30.612,30.612,0,0,1,7.529-2.02l-3.005.4a38.627,38.627,0,0,1,9.738.115l-3.005-.4a50.056,50.056,0,0,1,11.9,3.346l-2.7-1.14c8.124,3.488,15.319,8.666,22.5,13.743A168.717,168.717,0,0,0,836.5,689.377a163.37,163.37,0,0,0,52.186,15.787,156.657,156.657,0,0,0,139.553-55.4,12.175,12.175,0,0,0,3.311-7.994,11.5,11.5,0,0,0-3.311-7.994c-4.147-3.807-11.982-4.882-15.987,0a144.12,144.12,0,0,1-12.219,13.154q-3.041,2.885-6.244,5.592-1.829,1.546-3.709,3.031c-.593.468-2.44,1.715.4-.3-.65.461-1.274.965-1.915,1.439a149.62,149.62,0,0,1-30.646,17.432l2.7-1.14a145.956,145.956,0,0,1-36.433,9.982l3.005-.4a147.18,147.18,0,0,1-38.818-.057l3.005.4a150.432,150.432,0,0,1-37.467-10.2l2.7,1.14a174.884,174.884,0,0,1-32.763-18.979,130.933,130.933,0,0,0-16.75-10.542,64.547,64.547,0,0,0-21.762-6.615c-14.227-1.674-28.725,3.867-36.546,16.159-7.2,11.312-7.105,27.5,2.975,37.117,10.382,9.907,26.1,9.823,38.339,3.626,11.783-5.968,18.861-18.367,23.838-30.058,11.2-26.31,21.117-53.228,30.357-80.283q13.711-40.15,24.868-81.112,1.382-5.073,2.723-10.157c1.509-5.711-1.9-12.541-7.9-13.906a11.505,11.505,0,0,0-13.906,7.9Z"
            transform="translate(100.196 -93.358)" fill="#fff" />
        <path
            d="M892.626,485.941l-4.069,144.388-4.048,143.636-2.289,81.218a11.4,11.4,0,0,0,11.3,11.3,11.53,11.53,0,0,0,11.3-11.3L908.9,710.794l4.048-143.636,2.289-81.218a11.4,11.4,0,0,0-11.3-11.3A11.53,11.53,0,0,0,892.626,485.941Z"
            transform="translate(170.445 -95.438)" fill="#fff" />
        <path
            d="M794.671,584.963c-12.976-25.311-33.079-46.607-56.722-62.256A172.188,172.188,0,0,0,658.722,495q-5.563-.505-11.152-.592c-4.4-.066-70.641,19.04-92.829,34.641a172.276,172.276,0,0,0-53.257,59.578,154.5,154.5,0,0,0-18.277,77.826,171.174,171.174,0,0,0,22.161,77.589,166.52,166.52,0,0,0,54.932,58.4c23.12,14.75,46.342,53.863,73.638,55.244,27.5,1.391,58.866-35.5,83.948-46.706a157.4,157.4,0,0,0,62.892-51.255,166.178,166.178,0,0,0,29.541-73.778c3.879-27.256,2.071-55.367-7.237-81.418a168.57,168.57,0,0,0-8.411-19.57c-2.682-5.283-10.545-7.229-15.467-4.056a11.576,11.576,0,0,0-4.056,15.467q2.363,4.654,4.394,9.462l-1.14-2.7a152.465,152.465,0,0,1,10.365,38.493l-.4-3.005a164.645,164.645,0,0,1-.1,43.233l.4-3.005a165.4,165.4,0,0,1-11.387,41.713l1.14-2.7a157.048,157.048,0,0,1-10.056,19.743q-2.9,4.8-6.151,9.378c-.952,1.339-1.934,2.654-2.923,3.966-1.291,1.712,1.759-2.236.425-.557-.227.286-.453.573-.681.858q-1.027,1.284-2.083,2.544a141.093,141.093,0,0,1-15.339,15.651q-2.059,1.8-4.187,3.514c-.706.57-1.4,1.165-2.142,1.7.028-.02,2.381-1.808.988-.77-.438.326-.872.657-1.311.982q-4.386,3.249-9.005,6.168a155.973,155.973,0,0,1-22.241,11.626l2.7-1.14a164.619,164.619,0,0,1-41.6,11.382l3.005-.4a163.016,163.016,0,0,1-43.092.076l3.005.4a150.486,150.486,0,0,1-37.826-10.226l2.7,1.14a141.149,141.149,0,0,1-20.222-10.537q-4.785-3.015-9.32-6.4c-.431-.322-.859-.649-1.289-.973-1.38-1.041.991.768,1.01.781a28.9,28.9,0,0,1-2.314-1.846q-2.191-1.784-4.313-3.65a153.728,153.728,0,0,1-15.816-16.142q-1.828-2.161-3.578-4.387c-.505-.643-1.427-1.945.609.8-.268-.361-.546-.715-.816-1.073q-.974-1.292-1.923-2.6-3.321-4.594-6.312-9.414a164.723,164.723,0,0,1-11.765-22.772l1.14,2.7a160.658,160.658,0,0,1-11.064-40.451l.4,3.005a147.515,147.515,0,0,1-.073-38.641l-.4,3.005a142.7,142.7,0,0,1,9.94-36.113l-1.14,2.7a153.082,153.082,0,0,1,10.845-20.885q3.113-5.009,6.6-9.774.792-1.083,1.6-2.152c.488-.645,1.831-2.251-.46.586.225-.278.441-.564.662-.845q1.912-2.423,3.918-4.77a161.88,161.88,0,0,1,16.4-16.612q2.222-1.947,4.514-3.812,1.041-.848,2.1-1.677c.281-.221.566-.438.846-.661-3.011,2.4-.836.652-.153.14q4.724-3.54,9.7-6.725a156.232,156.232,0,0,1,23.192-12.221l-2.7,1.14c11.7-4.911,63.518-16.5,72.944-15.238l-3.005-.4a160.114,160.114,0,0,1,40.275,11.127l-2.7-1.14a166.249,166.249,0,0,1,18.992,9.54q4.587,2.689,8.995,5.671,2.085,1.412,4.127,2.886,1.02.737,2.029,1.49c.374.279.744.562,1.117.841,1.566,1.174-2.158-1.7-.516-.4a167.074,167.074,0,0,1,15.627,13.947q3.619,3.685,6.989,7.6,1.728,2.011,3.386,4.081c.549.686,2.419,3.167.127.128.56.743,1.127,1.481,1.68,2.229a147.683,147.683,0,0,1,12.649,20.406c2.7,5.272,10.531,7.238,15.467,4.055A11.571,11.571,0,0,0,794.671,584.963Z"
            transform="translate(-32.007 -85.407)" fill="#fff" />
        <circle cx="16.58" cy="16.58" r="16.58" transform="translate(106.033 556.741)" fill="#fff" />
        <circle cx="16.58" cy="16.58" r="16.58" transform="translate(304.995 737.616)" fill="#fff" />
        <circle cx="16.58" cy="16.58" r="16.58" transform="translate(1060.146 737.616)" fill="#fff" />
        <circle cx="16.58" cy="16.58" r="16.58" transform="translate(1100.843 526.596)" fill="#fff" />
        <circle cx="16.58" cy="16.58" r="16.58" transform="translate(1052.609 372.852)" fill="#fff" />
        <path d="M445.292,588.994a16.5,16.5,0,1,1-.316-3.256,16.5,16.5,0,0,1,.316,3.256Z"
            transform="translate(-67.947 -45.818)" fill="#fff" />
        <circle cx="16.58" cy="16.58" r="16.58" transform="translate(692.368 421.086)" fill="#fff" />
        <path d="M556.292,518.994a16.5,16.5,0,1,1-.317-3.256A16.5,16.5,0,0,1,556.292,518.994Z"
            transform="translate(-11.638 -81.328)" fill="#fff" />
        <path d="M414.292,486.994a16.5,16.5,0,1,1-.316-3.256A16.5,16.5,0,0,1,414.292,486.994Z"
            transform="translate(-83.673 -97.561)" fill="#fff" />
        <circle cx="16.58" cy="16.58" r="16.58" transform="translate(865.706 562.77)" fill="#fff" />
        <circle cx="24.117" cy="24.117" r="24.117" transform="translate(597.409 396.969)" fill="#fff" />
    </g>
</svg>