<svg xmlns="http://www.w3.org/2000/svg" width="230" height="284.572" viewBox="0 0 230 284.572">
  <path id="logo"
    d="M115,724.572a26.511,26.511,0,0,1-8.193-1.294,139.5,139.5,0,0,1-42.766-22.751,160.812,160.812,0,0,1-33.817-35.917A171.526,171.526,0,0,1,8,619.393a165.941,165.941,0,0,1-8-50.647V501.184A28.652,28.652,0,0,1,5.139,484.76a29.165,29.165,0,0,1,13.548-10.6l86.25-32.343A27.961,27.961,0,0,1,114.854,440a27.355,27.355,0,0,1,10.209,1.96L211.313,474.3A28.756,28.756,0,0,1,230,501.184v67.562a166.2,166.2,0,0,1-8,50.708,171.258,171.258,0,0,1-22.227,45.21,160.6,160.6,0,0,1-33.817,35.884,139.692,139.692,0,0,1-42.766,22.731A26.517,26.517,0,0,1,115,724.572ZM146.66,569.765a13.531,13.531,0,0,0-6.65,1.558,10.842,10.842,0,0,0-4.341,4.427,14.156,14.156,0,0,0-1.54,6.755,14.358,14.358,0,0,0,1.523,6.79,10.819,10.819,0,0,0,4.34,4.445,13.51,13.51,0,0,0,6.668,1.575,13.309,13.309,0,0,0,6.632-1.575,10.872,10.872,0,0,0,4.3-4.445,15.821,15.821,0,0,0,0-13.545,10.75,10.75,0,0,0-4.3-4.427A13.43,13.43,0,0,0,146.66,569.765Zm-44.346,0a13.839,13.839,0,0,0-6.79,1.593A11.064,11.064,0,0,0,91.1,575.82a13.871,13.871,0,0,0-1.557,6.685,14.051,14.051,0,0,0,1.557,6.737,11.043,11.043,0,0,0,4.428,4.48,13.848,13.848,0,0,0,6.79,1.592,15.494,15.494,0,0,0,4.743-.735,10.053,10.053,0,0,0,3.693-1.994l-2-4.655a12.3,12.3,0,0,1-3.15,1.679,9.741,9.741,0,0,1-3.15.526,5.72,5.72,0,0,1-4.6-1.925,8.682,8.682,0,0,1-1.627-5.705c0-2.509.547-4.417,1.627-5.67a5.771,5.771,0,0,1,4.6-1.89,9.742,9.742,0,0,1,3.15.525,12.276,12.276,0,0,1,3.15,1.68l2-4.655a10.044,10.044,0,0,0-3.693-2A15.5,15.5,0,0,0,102.315,569.765Zm-28.419,0a13.531,13.531,0,0,0-6.65,1.558A10.842,10.842,0,0,0,62.9,575.75a14.156,14.156,0,0,0-1.54,6.755,14.358,14.358,0,0,0,1.523,6.79,10.819,10.819,0,0,0,4.34,4.445,13.51,13.51,0,0,0,6.668,1.575,13.308,13.308,0,0,0,6.632-1.575,10.872,10.872,0,0,0,4.3-4.445,15.822,15.822,0,0,0,0-13.545,10.751,10.751,0,0,0-4.3-4.427A13.429,13.429,0,0,0,73.9,569.765Zm123.3.315v5.32h7.421V595h6.649V575.4h7.421v-5.32H197.2Zm-9.24,0V595h6.581V570.08H187.96Zm-18.515,15.225h2.381a3.983,3.983,0,0,1,1.575.315,1.927,1.927,0,0,1,1.049,1.084l3.22,8.3h6.965l-2.94-7.42a5.075,5.075,0,0,0-1.662-2.327,3.967,3.967,0,0,0-1.521-.7,7.763,7.763,0,0,0,2.746-1.537,7.67,7.67,0,0,0,.105-10.973c-1.5-1.3-3.788-1.96-6.808-1.96H162.97V595h6.475v-9.694ZM112.01,570.08v5.32h7.42V595h6.65V575.4h7.42v-5.32H112.01ZM43.69,585.305H46.07a3.983,3.983,0,0,1,1.575.315A1.932,1.932,0,0,1,48.7,586.7l3.219,8.3H58.88l-2.939-7.42a5.084,5.084,0,0,0-1.663-2.327,3.957,3.957,0,0,0-1.521-.7,7.764,7.764,0,0,0,2.746-1.537,7.67,7.67,0,0,0,.105-10.973c-1.5-1.3-3.788-1.96-6.808-1.96H37.215V595H43.69v-9.694ZM13.24,570.08V595h6.58v-9.73H25.1a9.73,9.73,0,0,0,6.615-2.065,7.733,7.733,0,0,0,.035-11.06c-1.533-1.371-3.77-2.065-6.65-2.065H13.24Zm133.42,20.23a5.368,5.368,0,0,1-4.341-1.942c-1.068-1.29-1.61-3.262-1.61-5.863,0-2.577.542-4.532,1.61-5.81a5.856,5.856,0,0,1,8.7.018,8.879,8.879,0,0,1,1.628,5.792c0,2.578-.548,4.544-1.628,5.845A5.4,5.4,0,0,1,146.66,590.31Zm-72.765,0a5.368,5.368,0,0,1-4.341-1.942c-1.068-1.29-1.61-3.262-1.61-5.863,0-2.577.542-4.532,1.61-5.81a5.856,5.856,0,0,1,8.7.018,8.879,8.879,0,0,1,1.628,5.792c0,2.578-.548,4.544-1.628,5.845A5.4,5.4,0,0,1,73.9,590.31ZM173.5,580.4h-4.13V575.05h4.13a5.664,5.664,0,0,1,3.063.63,2.325,2.325,0,0,1,.928,2.066,2.3,2.3,0,0,1-.928,2.012A5.533,5.533,0,0,1,173.5,580.4Zm-125.754,0H43.62V575.05h4.13a5.662,5.662,0,0,1,3.062.63,2.325,2.325,0,0,1,.928,2.066,2.3,2.3,0,0,1-.928,2.012A5.531,5.531,0,0,1,47.75,580.4ZM24.23,580.37H19.82V575.05h4.41a4.663,4.663,0,0,1,2.835.683,2.4,2.4,0,0,1,.875,2.012,2.309,2.309,0,0,1-.892,1.942A4.675,4.675,0,0,1,24.23,580.37Z"
    transform="translate(0 -440)" fill="#2493ea" />
</svg>